<svg xmlns="http://www.w3.org/2000/svg" width="1527.296" height="298.311" viewBox="0 0 1527.296 298.311"><path fill="#60BE72" d="M139.76 298.3c-4.675-.046-4.87-.056-9.156-.272-2.444-.123-6.207-.313-12.853-.615l-2.41-.24c-2.496-2.792-4.932-5.604-7.25-8.37-1.847-2.205-3.634-4.48-5.42-6.752l-1.37-1.74c-1.706-2.164-3.41-4.327-5.05-6.565-1.322-1.8-2.59-3.66-3.86-5.522l-1.067-1.56c-.47-.684-.946-1.354-1.424-2.026-.728-1.023-1.457-2.046-2.15-3.11l-1.457-2.286c-.512-.797-1.025-1.597-1.527-2.406-.37-.596-.718-1.204-1.067-1.813-.3-.52-.6-1.04-.91-1.556-1.246-2.06-2.455-4.142-3.654-6.227-9.058-15.755-16.984-32.387-23.558-49.434-.95-2.468-1.865-4.95-2.77-7.437-1.28-3.522-2.53-7.058-3.705-10.62-2.107-6.392-4.12-13.254-5.982-20.397-.41-1.58-.775-3.17-1.143-4.76l-.36-1.544c2.924-3.21 5.615-6.06 8.164-8.645.65 1.902 1.304 3.802 2.007 5.7 4.197 11.336 8.99 22.526 14.247 33.26l.747 1.536c.518 1.064 1.034 2.13 1.573 3.188 5.028 9.904 10.414 19.473 16.008 28.44 5.79 9.273 11.805 18.113 17.88 26.276 1.925 2.586 3.9 5.13 5.897 7.658 1.855 2.345 3.754 4.65 5.677 6.938 2.38 2.83 4.83 5.63 7.28 8.32 2.193 2.413 4.437 4.78 6.718 7.106 3.396 3.46 6.603 6.556 9.805 9.47l.766.716c.335.318.67.637 1.016.943 1.8 1.606 3.656 3.17 5.51 4.733l.32.267c.105.09.22.16.344.218 3.467 2.924 7.045 5.83 10.858 8.82-5.15.218-9.81.324-14.153.324l-2.52-.013z"/><path fill="#56A563" d="M108.532 296.472c-13.293-1.438-25.726-3.226-37.018-5.32-1.174-1.768-2.338-3.546-3.477-5.346-1.4-2.21-2.764-4.45-4.11-6.71-.863-1.454-1.702-2.937-2.54-4.42l-.384-.676c-.41-.727-.834-1.447-1.257-2.167-.64-1.088-1.28-2.178-1.882-3.304l-.84-1.61c-.58-1.104-1.16-2.21-1.726-3.326l-.447-.94c-.6-1.196-1.166-2.407-1.73-3.62l-1.538-3.248c-.49-1.02-.978-2.037-1.45-3.062-7.48-16.214-13.8-33.194-18.788-50.47-.733-2.54-1.43-5.095-2.114-7.65-.972-3.62-1.908-7.25-2.77-10.9-.754-3.198-1.453-6.408-2.105-9.63 2.93-4.026 6.124-8.113 9.518-12.184 2.747 9.248 5.818 18.28 9.14 26.88l.6 1.562c.426 1.117.852 2.233 1.3 3.348C49.074 204 53.61 214 58.397 223.4c4.56 8.954 9.453 17.73 14.546 26.086 1.236 2.03 2.503 4.04 3.785 6.044 1.357 2.124 2.717 4.25 4.126 6.342 1.508 2.24 3.055 4.45 4.623 6.648 1.715 2.405 3.483 4.766 5.272 7.114 1.93 2.53 3.908 5.018 5.927 7.472 2.014 2.45 4.08 4.85 6.185 7.215.083.094.177.175.28.245l.77.87c1.153 1.3 2.305 2.604 3.497 3.866.37.394.746.783 1.125 1.172z"/><path fill="#60BE72" d="M139.76 298.3c-4.675-.046-4.87-.056-9.156-.272-2.444-.123-6.207-.313-12.853-.615l-2.41-.24c-2.496-2.792-4.932-5.604-7.25-8.37-1.847-2.205-3.634-4.48-5.42-6.752l-1.37-1.74c-1.706-2.164-3.41-4.327-5.05-6.565-1.322-1.8-2.59-3.66-3.86-5.522l-1.067-1.56c-.47-.684-.946-1.354-1.424-2.026-.728-1.023-1.457-2.046-2.15-3.11l-1.457-2.286c-.512-.797-1.025-1.597-1.527-2.406-.37-.596-.718-1.204-1.067-1.813-.3-.52-.6-1.04-.91-1.556-1.246-2.06-2.455-4.142-3.654-6.227-9.058-15.755-16.984-32.387-23.558-49.434-.95-2.468-1.865-4.95-2.77-7.437-1.28-3.522-2.53-7.058-3.705-10.62-2.107-6.392-4.12-13.254-5.982-20.397-.41-1.58-.775-3.17-1.143-4.76l-.36-1.544c2.924-3.21 5.615-6.06 8.164-8.645.65 1.902 1.304 3.802 2.007 5.7 4.197 11.336 8.99 22.526 14.247 33.26l.747 1.536c.518 1.064 1.034 2.13 1.573 3.188 5.028 9.904 10.414 19.473 16.008 28.44 5.79 9.273 11.805 18.113 17.88 26.276 1.925 2.586 3.9 5.13 5.897 7.658 1.855 2.345 3.754 4.65 5.677 6.938 2.38 2.83 4.83 5.63 7.28 8.32 2.193 2.413 4.437 4.78 6.718 7.106 3.396 3.46 6.603 6.556 9.805 9.47l.766.716c.335.318.67.637 1.016.943 1.8 1.606 3.656 3.17 5.51 4.733l.32.267c.105.09.22.16.344.218 3.467 2.924 7.045 5.83 10.858 8.82-5.15.218-9.81.324-14.153.324l-2.52-.013z"/><path fill="#56A563" d="M244.08 153.747c-.65-1.9-1.304-3.8-2.007-5.7-4.197-11.335-8.99-22.525-14.247-33.258l-.747-1.536c-.518-1.064-1.034-2.13-1.573-3.19-5.036-9.917-10.422-19.486-16.008-28.44-5.75-9.21-11.737-18.01-17.794-26.156-.08-.107-.173-.202-.274-.282-1.763-2.362-3.567-4.694-5.393-7.01-.05-.12-.117-.234-.203-.34-1.926-2.437-3.782-4.688-5.66-6.922-.087-.104-.187-.196-.297-.27-2.174-2.584-4.436-5.174-6.732-7.71-.055-.112-.126-.216-.213-.312-2.312-2.548-4.503-4.856-6.728-7.128-.094-.094-.197-.176-.31-.24-3.102-3.16-6.193-6.15-9.2-8.9-.065-.104-.143-.198-.236-.284l-.996-.942c-.332-.315-.663-.628-1.004-.932-1.804-1.606-3.66-3.17-5.516-4.735l-.313-.263c-.105-.09-.22-.16-.344-.218-3.378-2.85-6.96-5.762-10.686-8.688C142.51.097 146.953 0 151.087 0l2.52.012c4.688.045 4.87.054 9.195.273 2.444.123 6.202.313 12.812.614l3.024.296c2.392 2.674 4.745 5.388 7.058 8.148.09.106.192.197.303.274 1.765 2.12 3.477 4.3 5.188 6.478l1.442 1.834c1.682 2.133 3.364 4.268 4.98 6.474 1.32 1.797 2.586 3.653 3.85 5.51l1.076 1.572c.47.683.946 1.354 1.424 2.026.727 1.023 1.456 2.046 2.15 3.11 0 0 2.48 3.882 2.983 4.693.37.595.718 1.203 1.065 1.81.3.522.6 1.043.91 1.56 1.246 2.06 2.455 4.142 3.654 6.227 9.058 15.755 16.984 32.387 23.558 49.434.95 2.467 1.865 4.95 2.77 7.437 1.28 3.522 2.53 7.058 3.705 10.62 2.107 6.392 4.12 13.254 5.982 20.397.405 1.557.766 3.124 1.128 4.692l.376 1.612c-2.922 3.21-5.613 6.06-8.16 8.643z"/><path fill="#60BE72" d="M62.365 289.335c-19.787-4.195-30.03-8.215-32.815-9.4-.325-.712-.636-1.374-.945-2.036-.718-1.536-1.437-3.073-2.1-4.653-.714-1.707-1.412-3.423-2.093-5.153-7.814-19.84-13.908-41.14-18.115-63.31l-.43-2.408c3.818-6.365 7.498-12.203 11.188-17.748.673 2.644 1.374 5.29 2.12 7.938l.447 1.6c.32 1.154.64 2.31.987 3.464 3.17 10.654 6.75 21.035 10.642 30.852 3.522 8.883 7.4 17.71 11.524 26.244l.68 1.428c.364.768.727 1.534 1.104 2.294.742 1.486 1.514 2.953 2.287 4.422l1.485 2.846c.463.898.927 1.797 1.41 2.685 1.267 2.34 2.592 4.646 3.92 6.948.912 1.58 1.844 3.145 2.786 4.706 1.3 2.154 2.605 4.306 3.96 6.42.07.114.158.216.255.303.558.86 1.127 1.71 1.702 2.558z"/><path fill="#56A563" d="M108.532 296.472c-13.293-1.438-25.726-3.226-37.018-5.32-1.174-1.768-2.338-3.546-3.477-5.346-1.4-2.21-2.764-4.45-4.11-6.71-.863-1.454-1.702-2.937-2.54-4.42l-.384-.676c-.41-.727-.834-1.447-1.257-2.167-.64-1.088-1.28-2.178-1.882-3.304l-.84-1.61c-.58-1.104-1.16-2.21-1.726-3.326l-.447-.94c-.6-1.196-1.166-2.407-1.73-3.62l-1.538-3.248c-.49-1.02-.978-2.037-1.45-3.062-7.48-16.214-13.8-33.194-18.788-50.47-.733-2.54-1.43-5.095-2.114-7.65-.972-3.62-1.908-7.25-2.77-10.9-.754-3.198-1.453-6.408-2.105-9.63 2.93-4.026 6.124-8.113 9.518-12.184 2.747 9.248 5.818 18.28 9.14 26.88l.6 1.562c.426 1.117.852 2.233 1.3 3.348C49.074 204 53.61 214 58.397 223.4c4.56 8.954 9.453 17.73 14.546 26.086 1.236 2.03 2.503 4.04 3.785 6.044 1.357 2.124 2.717 4.25 4.126 6.342 1.508 2.24 3.055 4.45 4.623 6.648 1.715 2.405 3.483 4.766 5.272 7.114 1.93 2.53 3.908 5.018 5.927 7.472 2.014 2.45 4.08 4.85 6.185 7.215.083.094.177.175.28.245l.77.87c1.153 1.3 2.305 2.604 3.497 3.866.37.394.746.783 1.125 1.172zM165.59 297.884c-2.365-1.987-5.01-4.5-7.575-6.938-1.813-1.723-3.583-3.404-5.19-4.843-2.43-2.168-4.82-4.384-7.19-6.625-3.655-3.458-6.91-6.664-9.945-9.803-2.136-2.21-4.236-4.468-6.31-6.76-2.46-2.71-4.978-5.612-7.49-8.627 0 0-1.566-1.855-1.932-2.304-1.165-1.435-2.318-2.886-3.46-4.355l-.26-.352c-1.562-2.016-3.057-4.08-4.552-6.14l-1.26-1.738c-10.882-14.935-20.69-30.886-29.148-47.412-1.207-2.352-2.377-4.726-3.538-7.103-1.644-3.368-3.256-6.754-4.8-10.173-2.77-6.147-5.493-12.76-8.09-19.657-2.142-5.697-4.196-11.753-6.433-18.994 2.46-2.302 4.78-4.418 7.032-6.415 2.505 5.786 4.765 10.69 7.05 15.304 5.357 10.822 11.298 21.447 17.66 31.578l.882 1.413c.63 1.017 1.264 2.034 1.92 3.044 6.044 9.328 12.405 18.28 18.904 26.6 6.845 8.765 13.847 17.027 20.81 24.56 2.857 3.088 5.852 6.19 9.158 9.485 2.07 2.06 4.155 4.106 6.282 6.103 3.628 3.406 7.592 6.893 12.12 10.657 2.11 1.756 4.237 3.49 6.403 5.17 2.32 1.802 4.65 3.592 7.04 5.3 2.89 2.075 6.017 4.224 9.56 6.572 2.4 1.59 4.833 3.146 7.277 4.69.118.074.245.13.376.17 1.934 1.22 4.055 2.537 6.243 3.885 4.298 2.573 8.936 5.265 13.05 7.65-4.423.86-9.512 1.684-13.798 2.38l-3.54.58c-10.674 1.758-18.87 2.69-27.26 3.097z"/><path fill="#56A563" d="M165.59 297.884c-2.365-1.987-5.01-4.5-7.575-6.938-1.813-1.723-3.583-3.404-5.19-4.843-2.43-2.168-4.82-4.384-7.19-6.625-3.655-3.458-6.91-6.664-9.945-9.803-2.136-2.21-4.236-4.468-6.31-6.76-2.46-2.71-4.978-5.612-7.49-8.627 0 0-1.566-1.855-1.932-2.304-1.165-1.435-2.318-2.886-3.46-4.355l-.26-.352c-1.562-2.016-3.057-4.08-4.552-6.14l-1.26-1.738c-10.882-14.935-20.69-30.886-29.148-47.412-1.207-2.352-2.377-4.726-3.538-7.103-1.644-3.368-3.256-6.754-4.8-10.173-2.77-6.147-5.493-12.76-8.09-19.657-2.142-5.697-4.196-11.753-6.433-18.994 2.46-2.302 4.78-4.418 7.032-6.415 2.505 5.786 4.765 10.69 7.05 15.304 5.357 10.822 11.298 21.447 17.66 31.578l.882 1.413c.63 1.017 1.264 2.034 1.92 3.044 6.044 9.328 12.405 18.28 18.904 26.6 6.845 8.765 13.847 17.027 20.81 24.56 2.857 3.088 5.852 6.19 9.158 9.485 2.07 2.06 4.155 4.106 6.282 6.103 3.628 3.406 7.592 6.893 12.12 10.657 2.11 1.756 4.237 3.49 6.403 5.17 2.32 1.802 4.65 3.592 7.04 5.3 2.89 2.075 6.017 4.224 9.56 6.572 2.4 1.59 4.833 3.146 7.277 4.69.118.074.245.13.376.17 1.934 1.22 4.055 2.537 6.243 3.885 4.298 2.573 8.936 5.265 13.05 7.65-4.423.86-9.512 1.684-13.798 2.38l-3.54.58c-10.674 1.758-18.87 2.69-27.26 3.097z"/><path fill="#757576" d="M293.248 195.605l-.015.13.015-.13z"/><path fill="#6D6E71" d="M143.258 238.772c-2.46-2.466-4.757-4.835-6.966-7.19 4.782-2.118 8.858-4.017 12.7-5.92 10.82-5.356 21.446-11.297 31.58-17.66l1.492-.933c.99-.618 1.98-1.234 2.962-1.87 9.325-6.043 18.274-12.403 26.6-18.907 5.94-4.638 11.73-9.417 17.21-14.204 2.972-2.6 6.02-5.372 9.32-8.474 2.133-2 4.257-4.012 6.334-6.073 3.227-3.203 6.654-6.807 10.476-11.02 1.863-2.053 3.71-4.118 5.506-6.227 4.26-4.998 8.238-10.046 11.826-15.005l.608-.807c1.428-1.99 2.81-4.03 4.19-6.067l.312-.46c3.782-5.58 7.524-11.415 11.38-17.75l.168.97c.628 3.697 1.22 7.398 1.737 11.114.927 6.678 1.675 13.79 2.223 21.14.168 2.272.27 4.548.376 6.824l.065 1.422c-3.635 4.174-7.353 8.25-11.056 12.127-2.247 2.352-4.53 4.677-6.86 6.968-3.068 3.018-6.286 6.038-9.563 8.976-2.296 2.06-4.638 4.088-7.025 6.086l-1.042.878c-.59.5-1.18 1-1.783 1.492-1.434 1.162-2.885 2.318-4.353 3.46l-1.297.956c-1.93 1.485-3.898 2.914-5.868 4.343l-1.187.863c-2.59 1.885-5.186 3.756-7.826 5.562-12.624 8.65-25.9 16.555-39.464 23.496-2.352 1.208-4.726 2.378-7.103 3.54-3.368 1.642-6.754 3.254-10.173 4.798-6.127 2.763-12.74 5.485-19.657 8.09-4.733 1.783-9.786 3.526-15.842 5.464z"/><path fill="#555656" d="M161.486 255.49c-3.492-2.92-6.636-5.668-9.546-8.34.734-.25 1.47-.506 2.203-.778 11.336-4.197 22.526-8.99 33.26-14.247l1.436-.7c1.096-.532 2.193-1.063 3.287-1.62 9.904-5.027 19.473-10.413 28.44-16.007 6.337-3.957 12.473-8.013 18.235-12.056 2.544-1.785 5.057-3.618 7.555-5.47 2.354-1.746 4.673-3.538 6.98-5.347 2.786-2.185 5.53-4.416 8.237-6.694 2.447-2.057 4.853-4.16 7.225-6.297 3.22-2.902 6.34-5.853 9.272-8.77 2.338-2.322 4.725-4.804 7.098-7.375l1.088-1.158c.585-.617 1.17-1.235 1.736-1.87 1.828-2.055 3.71-4.242 5.79-6.73.066 3.36.085 6.7.054 9.967-.045 4.62-.055 4.825-.273 9.12-.123 2.446-.313 6.206-.614 12.828-.18 1.914-.652 6.588-.652 6.588-2.57 2.136-5.233 4.217-8.174 6.506-2.444 1.897-4.892 3.792-7.41 5.624-2.424 1.76-4.913 3.462-7.416 5.156-.554.376-1.097.762-1.64 1.15-.686.488-1.373.977-2.087 1.443-1.006.656-2.03 1.3-3.05 1.942l-1.642 1.042c-1.048.652-2.117 1.265-3.184 1.88-.728.417-3.062 1.79-3.062 1.79-1.828 1.09-3.655 2.178-5.507 3.223-2.052 1.16-4.12 2.283-6.194 3.397-13.322 7.164-27.144 13.522-41.083 18.897-2.468.95-4.95 1.865-7.437 2.77-3.522 1.28-7.058 2.53-10.62 3.705-6.392 2.106-13.254 4.12-20.397 5.98-.454.116-1.728.408-1.907.45z"/><path fill="#6D6E71" d="M184.243 272.465c-3.194-2.126-6.077-4.113-8.8-6.064-1.608-1.15-3.19-2.34-4.76-3.543 7.533-2.354 14.965-4.94 22.13-7.71l1.56-.598c1.117-.428 2.234-.854 3.35-1.303 10.328-4.162 20.328-8.697 29.72-13.48 5.893-3 11.853-6.226 17.715-9.587 1.994-1.14 3.966-2.32 5.94-3.503 2.153-1.287 4.263-2.563 6.356-3.876 2.194-1.378 4.377-2.78 6.537-4.21 2.387-1.582 4.735-3.214 7.074-4.86 2.467-1.737 4.9-3.517 7.307-5.33 2.516-1.894 4.994-3.828 7.438-5.81 1.905-1.544 3.81-3.14 5.69-4.762-1.444 12.41-3.197 24.004-5.23 34.607-.987.594-1.997 1.164-3.007 1.734-.73.413-3.42 1.97-3.42 1.97-1.8 1.052-3.597 2.104-5.44 3.108-.31.168-.608.344-.906.52-.303.18-.608.36-.923.53-.846.45-3.13 1.627-3.13 1.627l-1.805.937c-.955.485-1.924.933-2.892 1.383-.705.327-1.41.654-2.11.994-1.49.722-2.985 1.43-4.486 2.13l-2.216 1.056c-1.182.57-2.366 1.14-3.565 1.672-.766.34-1.543.654-2.318.97-.608.248-1.218.494-1.82.754-13.74 5.882-27.85 10.927-41.935 14.993-2.54.734-5.094 1.43-7.648 2.116-3.62.972-7.25 1.91-10.9 2.77-.824.194-1.652.37-2.48.544l-1.02.22z"/><path fill="#757576" d="M252.743 282.373l.008-.05c-.003 0-.007.002-.01.004 0 .014 0 .032.003.046z"/><path fill="#555656" d="M213.184 291.148c.02-.543-.26-1.058-.74-1.335-6.425-3.734-12.14-7.157-17.366-10.406.51-.138 3.132-.868 3.132-.868 1.155-.322 2.31-.644 3.465-.988 10.657-3.17 21.036-6.752 30.85-10.643 5.693-2.256 11.635-4.78 17.664-7.502 1.225-.553 2.45-1.107 3.673-1.673 1.952-.908 3.892-1.847 5.83-2.79l.562-.273c1.164-.567 2.326-1.133 3.484-1.718 2.33-1.173 4.646-2.376 6.947-3.605 1.284-.687 2.554-1.394 3.824-2.1l.727-.404c2.422-1.348 4.605-2.56 6.75-3.83.817-.484 1.63-.98 2.435-1.48-4.214 19.237-8.137 28.865-9.1 31.077-.682.286-1.91.797-3.068 1.252-5.854 2.306-12.197 4.545-19.96 7.044-12.9 4.152-26.035 7.59-39.11 10.238z"/><path fill="#757576" d="M41.12 15.775l-.007.05c.004 0 .008-.002.012-.004 0-.013-.003-.03-.004-.045zM0 108.286l.01-.106-.01.106z"/><path fill="#ED1C24" d="M41.137 15.933c-.003-.034-.01-.077-.012-.112l-.012.005-.017.12.04-.012z"/><path fill="#60BE72" d="M62.365 289.335c-19.787-4.195-30.03-8.215-32.815-9.4-.325-.712-.636-1.374-.945-2.036-.718-1.536-1.437-3.073-2.1-4.653-.714-1.707-1.412-3.423-2.093-5.153-7.814-19.84-13.908-41.14-18.115-63.31l-.43-2.408c3.818-6.365 7.498-12.203 11.188-17.748.673 2.644 1.374 5.29 2.12 7.938l.447 1.6c.32 1.154.64 2.31.987 3.464 3.17 10.654 6.75 21.035 10.642 30.852 3.522 8.883 7.4 17.71 11.524 26.244l.68 1.428c.364.768.727 1.534 1.104 2.294.742 1.486 1.514 2.953 2.287 4.422l1.485 2.846c.463.898.927 1.797 1.41 2.685 1.267 2.34 2.592 4.646 3.92 6.948.912 1.58 1.844 3.145 2.786 4.706 1.3 2.154 2.605 4.306 3.96 6.42.07.114.158.216.255.303.558.86 1.127 1.71 1.702 2.558z"/><path fill="#555656" d="M4.906 196.97c-.628-3.696-1.22-7.397-1.737-11.113-.928-6.678-1.676-13.79-2.224-21.14-.168-2.272-.27-4.548-.376-6.824l-.065-1.422c3.642-4.18 7.36-8.26 11.056-12.128 2.25-2.35 4.533-4.676 6.862-6.967 3.063-3.01 6.28-6.03 9.563-8.977 2.296-2.06 4.638-4.086 7.025-6.085l1-.843c.604-.512 1.207-1.025 1.826-1.527 1.434-1.162 2.885-2.318 4.353-3.46l1.296-.956c1.93-1.485 3.898-2.914 5.868-4.343l1.186-.862c2.59-1.885 5.186-3.756 7.826-5.562 12.624-8.65 25.9-16.555 39.464-23.496 2.352-1.207 4.726-2.377 7.103-3.538 3.368-1.643 6.754-3.255 10.173-4.8 6.127-2.762 12.74-5.484 19.657-8.09 4.732-1.78 9.785-3.522 15.84-5.46 2.462 2.465 4.758 4.834 6.967 7.188-4.77 2.11-8.846 4.012-12.7 5.92-10.824 5.36-21.45 11.3-31.58 17.662l-1.41.88c-1.018.634-2.036 1.266-3.046 1.92-9.33 6.047-18.28 12.408-26.603 18.908-5.93 4.63-11.72 9.41-17.205 14.204-2.956 2.585-6.005 5.355-9.322 8.472-2.132 2.003-4.256 4.014-6.33 6.073-3.233 3.207-6.66 6.813-10.478 11.022-1.863 2.053-3.71 4.118-5.506 6.225-4.263 5.004-8.242 10.052-11.827 15.006l-.608.808c-1.408 1.962-2.77 3.97-4.13 5.976l-.373.55c-3.785 5.584-7.526 11.42-11.38 17.752-.054-.324-.11-.648-.166-.972z"/><path fill="#6D6E71" d="M.08 146.12c-.066-3.36-.085-6.7-.054-9.968.045-4.62.055-4.825.273-9.12.122-2.446.312-6.206.613-12.828.18-1.914.653-6.588.653-6.588 2.57-2.138 5.233-4.217 8.174-6.506 2.444-1.9 4.892-3.793 7.41-5.625 2.424-1.76 4.913-3.462 7.416-5.156.556-.377 1.097-.763 1.64-1.15.686-.49 1.373-.978 2.087-1.444 1.01-.657 2.035-1.302 3.06-1.946l1.633-1.038c1.048-.652 2.117-1.265 3.184-1.88.728-.417 3.074-1.798 3.074-1.798 1.824-1.085 3.648-2.172 5.496-3.217 2.05-1.158 4.118-2.278 6.194-3.394 13.327-7.166 27.15-13.523 41.084-18.897 2.467-.95 4.95-1.865 7.437-2.77 3.522-1.28 7.058-2.53 10.62-3.705 6.392-2.106 13.254-4.12 20.397-5.98.453-.12 1.725-.41 1.907-.452 3.49 2.92 6.634 5.667 9.543 8.34-.734.25-1.47.506-2.2.778-11.337 4.197-22.527 8.99-33.26 14.247l-1.44.7c-1.097.532-2.194 1.065-3.285 1.62-9.904 5.027-19.473 10.413-28.44 16.007-6.346 3.962-12.48 8.018-18.237 12.056-2.543 1.785-5.055 3.618-7.552 5.47-2.354 1.746-4.673 3.538-6.98 5.347-2.788 2.184-5.53 4.416-8.237 6.694-2.446 2.058-4.852 4.16-7.223 6.297-3.227 2.908-6.347 5.86-9.274 8.77-2.338 2.324-4.725 4.806-7.098 7.377l-1.084 1.153c-.587.62-1.174 1.24-1.74 1.876-1.817 2.04-3.698 4.226-5.79 6.73z"/><path fill="#60BE72" d="M259.99 136.26c-2.75-9.25-5.82-18.28-9.142-26.88l-.598-1.562c-.427-1.117-.853-2.233-1.302-3.348-4.162-10.328-8.697-20.328-13.48-29.72-4.517-8.87-9.38-17.593-14.453-25.926-.068-.113-.15-.213-.242-.302-1.1-1.802-2.223-3.59-3.36-5.372-.034-.112-.082-.22-.146-.324-1.445-2.267-2.764-4.322-4.127-6.352-.068-.102-.15-.194-.24-.276-.6-.727-3.665-5.134-4.18-6.01-.044-.12-.104-.237-.183-.344-1.8-2.53-3.505-4.803-5.226-7.064-.08-.104-.172-.196-.273-.276-1.768-2.313-3.573-4.593-5.414-6.845-.05-.11-.115-.22-.196-.316l-.238-.3c-2.015-2.45-4.08-4.85-6.186-7.215-.083-.094-.176-.174-.276-.242l-.813-.917c-1.14-1.286-2.28-2.573-3.46-3.82-.37-.394-.747-.783-1.125-1.172 13.293 1.438 25.726 3.226 37.018 5.32 1.174 1.77 2.338 3.546 3.477 5.346 1.4 2.21 2.764 4.45 4.11 6.71.884 1.49 1.74 3.007 2.6 4.523l.323.572c.41.723.83 1.436 1.248 2.15.643 1.096 1.287 2.19 1.892 3.322l.692 1.332c.7 1.33 1.296 2.46 1.875 3.603l.445.94c.6 1.196 1.167 2.407 1.73 3.62l1.54 3.248c.488 1.02.977 2.037 1.45 3.062 7.474 16.207 13.795 33.187 18.787 50.47.733 2.54 1.43 5.095 2.114 7.65.972 3.618 1.91 7.25 2.77 10.9.755 3.197 1.454 6.408 2.106 9.63-2.93 4.027-6.124 8.114-9.517 12.183z"/><path fill="#555656" d="M2.365 100.32c1.453-12.512 3.2-24.102 5.208-34.594 1.01-.607 2.02-1.177 3.03-1.747.73-.415 1.46-.827 2.182-1.248l1.27-.743c1.788-1.046 3.576-2.092 5.41-3.092.31-.168.612-.347.914-.525.3-.177.6-.356.912-.522.847-.45 3.132-1.627 3.132-1.627l1.804-.937c.955-.485 1.924-.933 2.892-1.383.705-.327 1.41-.654 2.11-.994 1.49-.725 2.985-1.433 4.486-2.133l2.216-1.055c1.183-.57 2.367-1.14 3.566-1.672.766-.34 1.543-.654 2.318-.97.608-.248 1.218-.494 1.82-.754C59.373 40.446 73.48 35.4 87.57 31.33c2.54-.732 5.095-1.428 7.65-2.113 3.618-.97 7.25-1.908 10.9-2.77.823-.193 1.65-.37 2.48-.543l1.024-.22c3.194 2.125 6.077 4.112 8.8 6.063 1.608 1.152 3.19 2.34 4.76 3.544-7.534 2.355-14.966 4.944-22.13 7.71l-1.56.6c-1.118.426-2.234.852-3.35 1.3-10.327 4.163-20.327 8.698-29.72 13.482-5.892 3-11.852 6.225-17.714 9.586-1.994 1.14-3.966 2.32-5.94 3.503-2.153 1.288-4.263 2.564-6.356 3.877-2.194 1.38-4.377 2.78-6.537 4.21-2.387 1.583-4.735 3.214-7.074 4.862-2.466 1.735-4.898 3.515-7.305 5.328-2.516 1.894-4.993 3.828-7.437 5.81-1.91 1.545-3.814 3.14-5.695 4.762z"/><path fill="#6D6E71" d="M9.44 56.613c4.207-19.22 8.136-28.864 9.1-31.077.683-.286 1.912-.798 3.07-1.254 5.718-2.252 11.9-4.44 19.418-6.868.045.004.09.007.136.007.12 0 .238-.016.356-.05.135-.06.27-.143.396-.243C54.702 13.027 67.72 9.627 80.68 7c-.02.543.26 1.058.74 1.335 6.425 3.734 12.14 7.157 17.366 10.406-.51.14-3.132.87-3.132.87-1.155.32-2.31.642-3.465.986-10.655 3.17-21.036 6.75-30.853 10.643-5.694 2.256-11.637 4.78-17.662 7.5-1.337.602-2.508 1.13-3.676 1.673-1.953.908-3.892 1.847-5.83 2.79l-.59.286c-1.154.562-2.307 1.124-3.455 1.7-2.332 1.176-4.648 2.38-6.95 3.61-1.326.707-2.637 1.44-3.95 2.168l-.6.334c-2.422 1.348-4.605 2.56-6.75 3.83-.816.485-1.627.98-2.436 1.48z"/><path fill="#60BE72" d="M228.414 168.503c-2.506-5.786-4.766-10.69-7.05-15.304-5.358-10.824-11.3-21.448-17.66-31.58l-.882-1.41c-.633-1.018-1.265-2.036-1.92-3.046-6.046-9.33-12.407-18.28-18.907-26.603-6.823-8.736-13.81-16.983-20.768-24.51-.094-.103-.2-.19-.315-.26-2.695-2.907-5.503-5.817-8.563-8.874-.06-.11-.136-.21-.227-.3-2.138-2.135-4.197-4.15-6.297-6.124-.102-.096-.215-.176-.335-.238-3.443-3.224-7.198-6.53-11.46-10.087-.067-.1-.15-.193-.244-.274-2.235-1.862-4.324-3.563-6.452-5.217-.107-.083-.223-.15-.344-.2-2.255-1.75-4.522-3.484-6.838-5.144-2.8-2.007-5.765-4.05-9.057-6.237-.08-.096-.177-.18-.286-.253-2.588-1.717-5.02-3.274-7.464-4.818-.12-.074-.245-.13-.376-.17-5.8-3.655-12.814-7.93-18.798-11.466 3.722-.724 7.547-1.338 11.278-1.94l3.952-.64C111.102 1.878 120.33.79 128.37.395c2.376 1.998 4.995 4.496 7.533 6.915 1.754 1.673 3.474 3.312 5.065 4.742.102.09.213.165.332.225 2.336 2.093 4.64 4.23 6.928 6.39 3.663 3.464 6.916 6.67 9.945 9.803 2.136 2.21 4.236 4.468 6.31 6.76 2.465 2.717 4.984 5.62 7.488 8.627 0 0 1.562 1.847 1.935 2.304 1.164 1.436 2.318 2.886 3.458 4.354l.26.354c1.567 2.02 3.064 4.085 4.562 6.153l1.25 1.725c10.883 14.935 20.69 30.886 29.15 47.412 1.206 2.352 2.376 4.725 3.537 7.102 1.643 3.37 3.255 6.754 4.8 10.173 2.77 6.147 5.493 12.76 8.09 19.657 2.142 5.694 4.194 11.75 6.433 18.993-2.454 2.302-4.773 4.42-7.03 6.42z"/><path fill="#56A563" d="M244.08 153.747c-.65-1.9-1.304-3.8-2.007-5.7-4.197-11.335-8.99-22.525-14.247-33.258l-.747-1.536c-.518-1.064-1.034-2.13-1.573-3.19-5.036-9.917-10.422-19.486-16.008-28.44-5.75-9.21-11.737-18.01-17.794-26.156-.08-.107-.173-.202-.274-.282-1.763-2.362-3.567-4.694-5.393-7.01-.05-.12-.117-.234-.203-.34-1.926-2.437-3.782-4.688-5.66-6.922-.087-.104-.187-.196-.297-.27-2.174-2.584-4.436-5.174-6.732-7.71-.055-.112-.126-.216-.213-.312-2.312-2.548-4.503-4.856-6.728-7.128-.094-.094-.197-.176-.31-.24-3.102-3.16-6.193-6.15-9.2-8.9-.065-.104-.143-.198-.236-.284l-.996-.942c-.332-.315-.663-.628-1.004-.932-1.804-1.606-3.66-3.17-5.516-4.735l-.313-.263c-.105-.09-.22-.16-.344-.218-3.378-2.85-6.96-5.762-10.686-8.688C142.51.097 146.953 0 151.087 0l2.52.012c4.688.045 4.87.054 9.195.273 2.444.123 6.202.313 12.812.614l3.024.296c2.392 2.674 4.745 5.388 7.058 8.148.09.106.192.197.303.274 1.765 2.12 3.477 4.3 5.188 6.478l1.442 1.834c1.682 2.133 3.364 4.268 4.98 6.474 1.32 1.797 2.586 3.653 3.85 5.51l1.076 1.572c.47.683.946 1.354 1.424 2.026.727 1.023 1.456 2.046 2.15 3.11 0 0 2.48 3.882 2.983 4.693.37.595.718 1.203 1.065 1.81.3.522.6 1.043.91 1.56 1.246 2.06 2.455 4.142 3.654 6.227 9.058 15.755 16.984 32.387 23.558 49.434.95 2.467 1.865 4.95 2.77 7.437 1.28 3.522 2.53 7.058 3.705 10.62 2.107 6.392 4.12 13.254 5.982 20.397.405 1.557.766 3.124 1.128 4.692l.376 1.612c-2.922 3.21-5.613 6.06-8.16 8.643zM276.808 113.52c-.675-2.645-1.376-5.29-2.122-7.94l-.453-1.616c-.32-1.15-.638-2.297-.98-3.447-3.172-10.654-6.752-21.035-10.644-30.852-3.484-8.784-7.332-17.552-11.438-26.057-.054-.113-.122-.216-.2-.31l-.527-1.108c-.353-.75-.707-1.498-1.075-2.24-.8-1.717-1.563-3.167-2.326-4.617l-.636-1.21c-.042-.08-.093-.157-.148-.228-.31-.514-1.608-2.997-1.868-3.57-.026-.092-.062-.18-.11-.267 0-.006-.16-.31-.162-.315-1.215-2.238-2.483-4.443-3.756-6.648-.065-.113-.145-.216-.235-.306-.776-1.342-1.56-2.674-2.356-4.002-.033-.115-.083-.226-.147-.33l-.215-.365c-1.3-2.155-2.605-4.304-3.96-6.42-.07-.114-.158-.216-.255-.303-.586-.906-1.187-1.802-1.792-2.693 20.03 4.24 30.297 8.3 33.01 9.463.48.933 1.725 3.74 2.94 6.645.715 1.705 1.413 3.422 2.094 5.152 7.814 19.843 13.908 41.145 18.114 63.313l.448 2.516c-3.782 6.293-7.483 12.163-11.204 17.754z"/><path fill="#757576" d="M293.248 195.605l-.015.13.015-.13z"/><path fill="#555656" d="M161.486 255.49c-3.492-2.92-6.636-5.668-9.546-8.34.734-.25 1.47-.506 2.203-.778 11.336-4.197 22.526-8.99 33.26-14.247l1.436-.7c1.096-.532 2.193-1.063 3.287-1.62 9.904-5.027 19.473-10.413 28.44-16.007 6.337-3.957 12.473-8.013 18.235-12.056 2.544-1.785 5.057-3.618 7.555-5.47 2.354-1.746 4.673-3.538 6.98-5.347 2.786-2.185 5.53-4.416 8.237-6.694 2.447-2.057 4.853-4.16 7.225-6.297 3.22-2.902 6.34-5.853 9.272-8.77 2.338-2.322 4.725-4.804 7.098-7.375l1.088-1.158c.585-.617 1.17-1.235 1.736-1.87 1.828-2.055 3.71-4.242 5.79-6.73.066 3.36.085 6.7.054 9.967-.045 4.62-.055 4.825-.273 9.12-.123 2.446-.313 6.206-.614 12.828-.18 1.914-.652 6.588-.652 6.588-2.57 2.136-5.233 4.217-8.174 6.506-2.444 1.897-4.892 3.792-7.41 5.624-2.424 1.76-4.913 3.462-7.416 5.156-.554.376-1.097.762-1.64 1.15-.686.488-1.373.977-2.087 1.443-1.006.656-2.03 1.3-3.05 1.942l-1.642 1.042c-1.048.652-2.117 1.265-3.184 1.88-.728.417-3.062 1.79-3.062 1.79-1.828 1.09-3.655 2.178-5.507 3.223-2.052 1.16-4.12 2.283-6.194 3.397-13.322 7.164-27.144 13.522-41.083 18.897-2.468.95-4.95 1.865-7.437 2.77-3.522 1.28-7.058 2.53-10.62 3.705-6.392 2.106-13.254 4.12-20.397 5.98-.454.116-1.728.408-1.907.45z"/><path fill="#6D6E71" d="M184.243 272.465c-3.194-2.126-6.077-4.113-8.8-6.064-1.608-1.15-3.19-2.34-4.76-3.543 7.533-2.354 14.965-4.94 22.13-7.71l1.56-.598c1.117-.428 2.234-.854 3.35-1.303 10.328-4.162 20.328-8.697 29.72-13.48 5.893-3 11.853-6.226 17.715-9.587 1.994-1.14 3.966-2.32 5.94-3.503 2.153-1.287 4.263-2.563 6.356-3.876 2.194-1.378 4.377-2.78 6.537-4.21 2.387-1.582 4.735-3.214 7.074-4.86 2.467-1.737 4.9-3.517 7.307-5.33 2.516-1.894 4.994-3.828 7.438-5.81 1.905-1.544 3.81-3.14 5.69-4.762-1.444 12.41-3.197 24.004-5.23 34.607-.987.594-1.997 1.164-3.007 1.734-.73.413-3.42 1.97-3.42 1.97-1.8 1.052-3.597 2.104-5.44 3.108-.31.168-.608.344-.906.52-.303.18-.608.36-.923.53-.846.45-3.13 1.627-3.13 1.627l-1.805.937c-.955.485-1.924.933-2.892 1.383-.705.327-1.41.654-2.11.994-1.49.722-2.985 1.43-4.486 2.13l-2.216 1.056c-1.182.57-2.366 1.14-3.565 1.672-.766.34-1.543.654-2.318.97-.608.248-1.218.494-1.82.754-13.74 5.882-27.85 10.927-41.935 14.993-2.54.734-5.094 1.43-7.648 2.116-3.62.972-7.25 1.91-10.9 2.77-.824.194-1.652.37-2.48.544l-1.02.22z"/><path fill="#757576" d="M252.743 282.373l.008-.05c-.003 0-.007.002-.01.004 0 .014 0 .032.003.046zM41.12 15.775l-.007.05c.004 0 .008-.002.012-.004 0-.013-.003-.03-.004-.045z"/><path fill="#ED1C24" d="M41.137 15.933c-.003-.034-.01-.077-.012-.112l-.012.005-.017.12.04-.012z"/><path fill="#555656" d="M4.906 196.97c-.628-3.696-1.22-7.397-1.737-11.113-.928-6.678-1.676-13.79-2.224-21.14-.168-2.272-.27-4.548-.376-6.824l-.065-1.422c3.642-4.18 7.36-8.26 11.056-12.128 2.25-2.35 4.533-4.676 6.862-6.967 3.063-3.01 6.28-6.03 9.563-8.977 2.296-2.06 4.638-4.086 7.025-6.085l1-.843c.604-.512 1.207-1.025 1.826-1.527 1.434-1.162 2.885-2.318 4.353-3.46l1.296-.956c1.93-1.485 3.898-2.914 5.868-4.343l1.186-.862c2.59-1.885 5.186-3.756 7.826-5.562 12.624-8.65 25.9-16.555 39.464-23.496 2.352-1.207 4.726-2.377 7.103-3.538 3.368-1.643 6.754-3.255 10.173-4.8 6.127-2.762 12.74-5.484 19.657-8.09 4.732-1.78 9.785-3.522 15.84-5.46 2.462 2.465 4.758 4.834 6.967 7.188-4.77 2.11-8.846 4.012-12.7 5.92-10.824 5.36-21.45 11.3-31.58 17.662l-1.41.88c-1.018.634-2.036 1.266-3.046 1.92-9.33 6.047-18.28 12.408-26.603 18.908-5.93 4.63-11.72 9.41-17.205 14.204-2.956 2.585-6.005 5.355-9.322 8.472-2.132 2.003-4.256 4.014-6.33 6.073-3.233 3.207-6.66 6.813-10.478 11.022-1.863 2.053-3.71 4.118-5.506 6.225-4.263 5.004-8.242 10.052-11.827 15.006l-.608.808c-1.408 1.962-2.77 3.97-4.13 5.976l-.373.55c-3.785 5.584-7.526 11.42-11.38 17.752-.054-.324-.11-.648-.166-.972z"/><path fill="#60BE72" d="M259.99 136.26c-2.75-9.25-5.82-18.28-9.142-26.88l-.598-1.562c-.427-1.117-.853-2.233-1.302-3.348-4.162-10.328-8.697-20.328-13.48-29.72-4.517-8.87-9.38-17.593-14.453-25.926-.068-.113-.15-.213-.242-.302-1.1-1.802-2.223-3.59-3.36-5.372-.034-.112-.082-.22-.146-.324-1.445-2.267-2.764-4.322-4.127-6.352-.068-.102-.15-.194-.24-.276-.6-.727-3.665-5.134-4.18-6.01-.044-.12-.104-.237-.183-.344-1.8-2.53-3.505-4.803-5.226-7.064-.08-.104-.172-.196-.273-.276-1.768-2.313-3.573-4.593-5.414-6.845-.05-.11-.115-.22-.196-.316l-.238-.3c-2.015-2.45-4.08-4.85-6.186-7.215-.083-.094-.176-.174-.276-.242l-.813-.917c-1.14-1.286-2.28-2.573-3.46-3.82-.37-.394-.747-.783-1.125-1.172 13.293 1.438 25.726 3.226 37.018 5.32 1.174 1.77 2.338 3.546 3.477 5.346 1.4 2.21 2.764 4.45 4.11 6.71.884 1.49 1.74 3.007 2.6 4.523l.323.572c.41.723.83 1.436 1.248 2.15.643 1.096 1.287 2.19 1.892 3.322l.692 1.332c.7 1.33 1.296 2.46 1.875 3.603l.445.94c.6 1.196 1.167 2.407 1.73 3.62l1.54 3.248c.488 1.02.977 2.037 1.45 3.062 7.474 16.207 13.795 33.187 18.787 50.47.733 2.54 1.43 5.095 2.114 7.65.972 3.618 1.91 7.25 2.77 10.9.755 3.197 1.454 6.408 2.106 9.63-2.93 4.027-6.124 8.114-9.517 12.183z"/><path fill="#555656" d="M2.365 100.32c1.453-12.512 3.2-24.102 5.208-34.594 1.01-.607 2.02-1.177 3.03-1.747.73-.415 1.46-.827 2.182-1.248l1.27-.743c1.788-1.046 3.576-2.092 5.41-3.092.31-.168.612-.347.914-.525.3-.177.6-.356.912-.522.847-.45 3.132-1.627 3.132-1.627l1.804-.937c.955-.485 1.924-.933 2.892-1.383.705-.327 1.41-.654 2.11-.994 1.49-.725 2.985-1.433 4.486-2.133l2.216-1.055c1.183-.57 2.367-1.14 3.566-1.672.766-.34 1.543-.654 2.318-.97.608-.248 1.218-.494 1.82-.754C59.373 40.446 73.48 35.4 87.57 31.33c2.54-.732 5.095-1.428 7.65-2.113 3.618-.97 7.25-1.908 10.9-2.77.823-.193 1.65-.37 2.48-.543l1.024-.22c3.194 2.125 6.077 4.112 8.8 6.063 1.608 1.152 3.19 2.34 4.76 3.544-7.534 2.355-14.966 4.944-22.13 7.71l-1.56.6c-1.118.426-2.234.852-3.35 1.3-10.327 4.163-20.327 8.698-29.72 13.482-5.892 3-11.852 6.225-17.714 9.586-1.994 1.14-3.966 2.32-5.94 3.503-2.153 1.288-4.263 2.564-6.356 3.877-2.194 1.38-4.377 2.78-6.537 4.21-2.387 1.583-4.735 3.214-7.074 4.862-2.466 1.735-4.898 3.515-7.305 5.328-2.516 1.894-4.993 3.828-7.437 5.81-1.91 1.545-3.814 3.14-5.695 4.762z"/><path fill="#60BE72" d="M228.414 168.503c-2.506-5.786-4.766-10.69-7.05-15.304-5.358-10.824-11.3-21.448-17.66-31.58l-.882-1.41c-.633-1.018-1.265-2.036-1.92-3.046-6.046-9.33-12.407-18.28-18.907-26.603-6.823-8.736-13.81-16.983-20.768-24.51-.094-.103-.2-.19-.315-.26-2.695-2.907-5.503-5.817-8.563-8.874-.06-.11-.136-.21-.227-.3-2.138-2.135-4.197-4.15-6.297-6.124-.102-.096-.215-.176-.335-.238-3.443-3.224-7.198-6.53-11.46-10.087-.067-.1-.15-.193-.244-.274-2.235-1.862-4.324-3.563-6.452-5.217-.107-.083-.223-.15-.344-.2-2.255-1.75-4.522-3.484-6.838-5.144-2.8-2.007-5.765-4.05-9.057-6.237-.08-.096-.177-.18-.286-.253-2.588-1.717-5.02-3.274-7.464-4.818-.12-.074-.245-.13-.376-.17-5.8-3.655-12.814-7.93-18.798-11.466 3.722-.724 7.547-1.338 11.278-1.94l3.952-.64C111.102 1.878 120.33.79 128.37.395c2.376 1.998 4.995 4.496 7.533 6.915 1.754 1.673 3.474 3.312 5.065 4.742.102.09.213.165.332.225 2.336 2.093 4.64 4.23 6.928 6.39 3.663 3.464 6.916 6.67 9.945 9.803 2.136 2.21 4.236 4.468 6.31 6.76 2.465 2.717 4.984 5.62 7.488 8.627 0 0 1.562 1.847 1.935 2.304 1.164 1.436 2.318 2.886 3.458 4.354l.26.354c1.567 2.02 3.064 4.085 4.562 6.153l1.25 1.725c10.883 14.935 20.69 30.886 29.15 47.412 1.206 2.352 2.376 4.725 3.537 7.102 1.643 3.37 3.255 6.754 4.8 10.173 2.77 6.147 5.493 12.76 8.09 19.657 2.142 5.694 4.194 11.75 6.433 18.993-2.454 2.302-4.773 4.42-7.03 6.42z"/><path fill="#56A563" d="M276.808 113.52c-.675-2.645-1.376-5.29-2.122-7.94l-.453-1.616c-.32-1.15-.638-2.297-.98-3.447-3.172-10.654-6.752-21.035-10.644-30.852-3.484-8.784-7.332-17.552-11.438-26.057-.054-.113-.122-.216-.2-.31l-.527-1.108c-.353-.75-.707-1.498-1.075-2.24-.8-1.717-1.563-3.167-2.326-4.617l-.636-1.21c-.042-.08-.093-.157-.148-.228-.31-.514-1.608-2.997-1.868-3.57-.026-.092-.062-.18-.11-.267 0-.006-.16-.31-.162-.315-1.215-2.238-2.483-4.443-3.756-6.648-.065-.113-.145-.216-.235-.306-.776-1.342-1.56-2.674-2.356-4.002-.033-.115-.083-.226-.147-.33l-.215-.365c-1.3-2.155-2.605-4.304-3.96-6.42-.07-.114-.158-.216-.255-.303-.586-.906-1.187-1.802-1.792-2.693 20.03 4.24 30.297 8.3 33.01 9.463.48.933 1.725 3.74 2.94 6.645.715 1.705 1.413 3.422 2.094 5.152 7.814 19.843 13.908 41.145 18.114 63.313l.448 2.516c-3.782 6.293-7.483 12.163-11.204 17.754z"/><path fill="#414042" d="M373.03 183.046c5.41 3.43 11.738 5.408 20.312 5.408 11.34 0 20.704-5.803 20.704-18.86 0-18.067-42.2-20.31-42.2-44.444 0-14.77 12.923-24 29.145-24 4.484 0 11.738.66 18.068 3.033l-1.45 8.31c-4.09-2.243-10.55-3.43-16.75-3.43-9.495 0-19.913 3.956-19.913 15.825 0 18.463 42.2 18.595 42.2 45.498 0 18.595-15.956 25.98-30.2 25.98-8.968 0-15.958-1.846-20.837-3.957l.923-9.364zM466.8 125.942c21.76 0 31.387 16.88 31.387 35.212s-9.628 35.212-31.388 35.212-31.388-16.88-31.388-35.212 9.628-35.212 31.387-35.212zm0 63.302c14.507 0 22.287-12.527 22.287-28.09 0-15.56-7.78-28.09-22.288-28.09-14.507 0-22.288 12.53-22.288 28.09 0 15.562 7.78 28.09 22.287 28.09zM566.372 178.957c0 5.143 0 10.42.527 15.826h-8.045v-12h-.265c-2.77 6.065-7.78 13.582-21.76 13.582-16.616 0-22.947-11.078-22.947-25.85v-42.992h8.31v40.883c0 12.66 4.482 20.836 15.956 20.836 15.165 0 19.913-13.32 19.913-24.53v-37.19h8.31v51.435zM616.225 134.647h-15.298v43.52c0 6.065 2.24 11.077 8.967 11.077 3.165 0 5.275-.658 7.65-1.58l.527 6.857c-1.977.792-6.065 1.847-10.154 1.847-14.77 0-15.298-10.155-15.298-22.42v-39.3H579.43v-7.12h13.188v-16.222l8.31-2.9v19.12h15.297v7.122zM631.128 95.874h8.31v42.993h.264c3.56-7.386 11.078-12.925 20.968-12.925 18.068 0 22.948 12.002 22.948 28.618v40.224h-8.31v-40.09c0-11.606-2.24-21.63-15.956-21.63-14.77 0-19.914 13.98-19.914 25.717v36.004h-8.31v-98.91zM805.212 113.018c-5.803-3.032-14.11-3.957-20.573-3.957-23.87 0-37.322 16.882-37.322 39.697 0 23.21 13.055 39.697 37.32 39.697 6.067 0 15.3-.79 20.574-3.957l.528 7.912c-5.012 3.033-15.298 3.956-21.1 3.956-29.014 0-46.422-19.123-46.422-47.61 0-27.957 17.935-47.607 46.42-47.607 5.407 0 16.353.922 21.102 3.428l-.528 8.44zM867.726 183.97h-.263c-3.694 8.044-13.057 12.396-21.365 12.396-19.122 0-22.155-12.924-22.155-18.99 0-22.55 24.003-23.607 41.41-23.607h1.583v-3.43c0-11.473-4.09-17.275-15.298-17.275-6.99 0-13.583 1.583-19.78 5.538v-8.044c5.142-2.507 13.846-4.618 19.78-4.618 16.617 0 23.606 7.517 23.606 25.057v29.672c0 5.408 0 9.496.66 14.11h-8.177V183.97zm-.792-23.08h-2.374c-14.375 0-31.52 1.452-31.52 16.222 0 8.837 6.332 12.132 13.98 12.132 19.52 0 19.914-17.012 19.914-24.265v-4.09zM895.027 142.56c0-7.387 0-10.156-.527-15.035h8.31v12.925h.262c3.032-7.517 8.704-14.508 17.276-14.508 1.98 0 4.353.396 5.803.79v8.706c-1.713-.528-3.954-.79-6.065-.79-13.188 0-16.75 14.77-16.75 26.902v33.233h-8.308V142.56zM962.837 125.942c21.76 0 31.388 16.88 31.388 35.212s-9.628 35.212-31.388 35.212-31.387-16.88-31.387-35.212 9.628-35.212 31.387-35.212zm0 63.302c14.508 0 22.288-12.527 22.288-28.09 0-15.56-7.78-28.09-22.288-28.09-14.506 0-22.287 12.53-22.287 28.09 0 15.562 7.78 28.09 22.287 28.09zM1009.922 95.874h8.31v98.91h-8.31v-98.91zM1047.507 109.59h-8.31V98.51h8.31v11.077zm-8.31 17.935h8.31v67.26h-8.31v-67.26zM1068.474 143.35c0-5.143 0-10.418-.527-15.826h8.044v12.002h.266c2.77-6.068 7.78-13.585 21.76-13.585 16.616 0 22.947 11.08 22.947 25.85v42.993h-8.31V153.9c0-12.66-4.484-20.836-15.956-20.836-15.166 0-19.914 13.32-19.914 24.53v37.19h-8.31V143.35zM1180.442 183.97h-.263c-3.695 8.044-13.058 12.396-21.366 12.396-19.12 0-22.155-12.924-22.155-18.99 0-22.55 24.002-23.607 41.41-23.607h1.582v-3.43c0-11.473-4.09-17.275-15.298-17.275-6.99 0-13.583 1.583-19.78 5.538v-8.044c5.142-2.507 13.846-4.618 19.78-4.618 16.617 0 23.606 7.517 23.606 25.057v29.672c0 5.408 0 9.496.66 14.11h-8.177V183.97zm-.792-23.08h-2.374c-14.375 0-31.52 1.452-31.52 16.222 0 8.837 6.332 12.132 13.98 12.132 19.52 0 19.914-17.012 19.914-24.265v-4.09z"/><path fill="#60BE72" d="M1311.665 193.464c-6.726 1.583-13.98 2.902-20.97 2.902-29.803 0-50.51-14.903-50.51-46.026 0-31.52 19.256-49.19 50.51-49.19 6.067 0 14.112 1.186 20.838 3.825l-1.32 15.56c-6.988-3.956-13.318-4.88-19.912-4.88-18.99 0-30.86 14.507-30.86 33.367 0 18.727 11.607 32.838 31.256 32.838 7.254 0 15.826-1.583 20.178-3.825l.79 15.43zM1323.668 102.732h23.342c20.047 0 38.38 5.803 38.38 27.827 0 21.495-15.697 29.277-35.478 29.277h-7.78v34.947h-18.464v-92.052zm18.463 42.596h6.462c9.232 0 17.54-3.032 17.54-13.715 0-10.68-8.042-14.375-17.54-14.375h-6.46v28.09zM1415.197 102.732h20.84l36.133 92.05h-20.44l-7.915-21.1h-37.32l-8.046 21.1h-19.123l35.87-92.05zm10.155 18.463h-.263l-13.32 37.98h26.902l-13.32-37.98zM1522.814 141.108c-5.41-1.846-9.365-2.9-15.827-2.9-4.748 0-10.418 1.713-10.418 7.516 0 10.814 30.726 3.957 30.726 28.486 0 15.824-14.11 22.155-28.486 22.155-6.726 0-13.583-1.188-20.046-2.902l1.056-14.506c5.538 2.77 11.342 4.485 17.407 4.485 4.485 0 11.606-1.714 11.606-8.31 0-13.32-30.727-4.22-30.727-28.75 0-14.64 12.793-21.1 26.64-21.1 8.31 0 13.715 1.318 19.253 2.506l-1.186 13.32z"/></svg>